<svg viewBox="0 0 194 49" fill="none" xmlns="http://www.w3.org/2000/svg">
<path fill-rule="evenodd" clip-rule="evenodd" d="M38.41 17.5348C37.9844 16.9323 37.3798 16.4793 36.6822 16.24C35.9845 16.0006 35.2291 15.9871 34.5234 16.2015C32.635 16.5998 31.6734 20.5031 30.1901 22.0347C28.7068 23.5664 27.3751 22.4664 25.6901 20.9047C24.0052 19.3431 23.3352 18.8181 22.2918 18.6681C21.2485 18.5181 20.4735 19.1014 19.0319 20.7714C17.5902 22.4414 17.5902 23.0314 16.0803 24.1614C14.5703 25.2913 12.682 22.4264 11.4136 22.7264C10.1453 23.0264 10.2787 24.7097 11.4136 26.123C11.9238 26.9164 12.6105 27.5812 13.42 28.0654C14.2295 28.5497 15.1399 28.8403 16.0803 28.9146C18.4452 29.0813 19.7869 26.8697 21.1952 25.8563C22.6035 24.843 23.8835 25.8897 26.2751 28.6146C26.5931 29.0679 27.0023 29.4497 27.4766 29.7355C27.9509 30.0212 28.4797 30.2046 29.029 30.2738C29.5784 30.343 30.1361 30.2965 30.6664 30.1374C31.1968 29.9782 31.6879 29.7099 32.1084 29.3496C32.9793 28.6436 33.7093 27.7796 34.26 26.803C34.3271 28.7554 34.0047 30.7016 33.3115 32.528C32.6183 34.3544 31.5683 36.0244 30.2227 37.4406C28.8771 38.8568 27.2629 39.9908 25.4742 40.7764C23.6856 41.562 21.7585 41.9834 19.8052 42.0161C17.1745 41.8993 14.6355 41.0156 12.5007 39.474C10.3659 37.9323 8.72858 35.8 7.79036 33.3396C6.76048 30.7383 6.26078 27.9575 6.32059 25.1604C6.38041 22.3633 6.99854 19.6063 8.13869 17.0515C9.76454 13.4217 12.1752 10.1976 15.1969 7.61157C16.5841 6.66642 18.2185 6.14988 19.8968 6.12618C21.5752 6.10247 23.2235 6.57265 24.6368 7.47824C26.5251 8.81156 27.1368 9.76321 28.5834 10.9015C29.148 11.3196 29.8403 11.5282 30.5418 11.4917C31.2433 11.4552 31.9103 11.1759 32.4284 10.7015C33.0201 10.2737 33.4248 9.63486 33.5589 8.91706C33.6929 8.19926 33.5459 7.45742 33.1484 6.84491C31.2951 4.88661 27.4718 0 20.3052 0C14.6753 0 10.972 3.09163 7.33036 6.84825C4.23111 10.4388 2.02222 14.7097 0.883009 19.314C-0.256202 23.9183 -0.293624 28.7264 0.773779 33.3479C2.78209 42.2745 10.5187 48.3477 20.3735 48.3477C24.7017 48.353 28.9083 46.9158 32.3286 44.2634C35.7488 41.611 38.1877 37.8945 39.26 33.7012C41.0433 26.2013 39.3366 18.6614 38.41 17.5348Z" fill="url(#paint0_linear_2_54)"/>
<path fill-rule="evenodd" clip-rule="evenodd" d="M193.22 26.4319C193.141 26.9105 193.029 27.3833 192.887 27.8469C192.833 28.0188 192.726 28.1691 192.582 28.2761C192.437 28.3831 192.262 28.4412 192.082 28.4419H179.459C179.391 28.8745 179.415 29.3162 179.527 29.7394C179.639 30.1625 179.838 30.5578 180.11 30.9002C180.691 31.4178 181.375 31.8082 182.116 32.0461C182.857 32.284 183.639 32.3644 184.413 32.2819C186.884 32.0582 189.275 31.2886 191.412 30.0286C191.513 29.9641 191.628 29.9259 191.748 29.9175C191.868 29.909 191.988 29.9306 192.097 29.9802C192.236 30.048 192.35 30.1597 192.42 30.2981C192.49 30.4366 192.513 30.5942 192.485 30.7469L191.702 34.4335C191.682 34.5359 191.64 34.6327 191.579 34.7169C191.518 34.8011 191.438 34.8705 191.347 34.9202C188.886 36.1274 186.171 36.7264 183.43 36.6668C182.044 36.7704 180.653 36.5622 179.358 36.0575C178.063 35.5528 176.897 34.7644 175.947 33.7502C175.285 32.7191 174.839 31.5646 174.636 30.3563C174.432 29.1481 174.476 27.9112 174.764 26.7203C175.529 22.2203 179.125 18.2654 185.988 18.2654C188.688 18.2654 190.612 18.5987 191.895 20.1454C192.55 21.0391 193.006 22.062 193.235 23.1459C193.463 24.2299 193.458 25.3501 193.22 26.4319ZM187.72 22.2287C187.387 21.8684 186.975 21.5889 186.518 21.4116C186.06 21.2343 185.568 21.1637 185.078 21.2053C183.958 21.2403 182.876 21.6213 181.98 22.296C181.085 22.9707 180.421 23.9061 180.079 24.9736H188.327C188.412 24.4994 188.403 24.013 188.3 23.5423C188.197 23.0716 188.002 22.6257 187.727 22.2303L187.72 22.2287ZM171.149 36.0618C171.121 36.2295 171.036 36.3821 170.907 36.4926C170.778 36.6031 170.614 36.6642 170.444 36.6652H166.802C166.644 36.6639 166.49 36.6108 166.365 36.5138C166.24 36.4169 166.15 36.2815 166.109 36.1285C166.08 36.0196 166.077 35.9056 166.099 35.7952L167.627 25.8836C167.773 25.3272 167.801 24.7466 167.711 24.1785C167.62 23.6105 167.413 23.0674 167.102 22.5837C166.839 22.3018 166.515 22.0829 166.156 21.9433C165.796 21.8036 165.41 21.7468 165.025 21.777C164.236 21.8096 163.469 22.0546 162.807 22.486C162.145 22.9175 161.611 23.5195 161.262 24.2286C161.057 24.6434 160.92 25.0886 160.857 25.547L159.31 36.0302C159.281 36.2086 159.19 36.371 159.053 36.4888C158.916 36.6065 158.741 36.6719 158.56 36.6735H155.06C154.948 36.6724 154.837 36.6468 154.735 36.5983C154.634 36.5498 154.544 36.4796 154.472 36.3928C154.401 36.3059 154.349 36.2044 154.321 36.0954C154.292 35.9864 154.288 35.8726 154.309 35.7618L155.757 25.8886C155.904 25.3333 155.934 24.7536 155.846 24.186C155.758 23.6184 155.554 23.0751 155.245 22.5903C154.982 22.3085 154.659 22.0896 154.299 21.9499C153.94 21.8103 153.553 21.7535 153.169 21.7837C152.363 21.8081 151.579 22.0477 150.897 22.4777C150.216 22.9076 149.661 23.5122 149.292 24.2286C149.087 24.6433 148.95 25.0885 148.887 25.547L147.309 36.0735C147.281 36.2397 147.196 36.3909 147.068 36.5004C146.94 36.6098 146.777 36.6705 146.609 36.6718H142.962C142.851 36.6745 142.741 36.6505 142.641 36.6018C142.5 36.5306 142.387 36.4161 142.317 36.2754C142.246 36.1347 142.223 35.9751 142.251 35.8202L144.131 23.5003C144.156 23.3381 144.182 23.1787 144.207 23.022L144.234 22.8237L144.837 19.062C144.86 18.8927 144.943 18.7372 145.071 18.6246C145.2 18.5121 145.365 18.4501 145.536 18.4504L149.309 18.477C149.418 18.4748 149.525 18.4976 149.624 18.5437C149.764 18.6129 149.878 18.7256 149.95 18.8649C150.021 19.0042 150.045 19.1628 150.019 19.317L149.787 20.5504C150.489 19.7983 151.344 19.2053 152.295 18.8115C153.245 18.4176 154.269 18.232 155.297 18.2671C156.252 18.2066 157.206 18.4096 158.053 18.854C158.901 19.2984 159.61 19.9671 160.104 20.787C160.997 19.8322 162.106 19.1052 163.338 18.6668C164.57 18.2284 165.89 18.0914 167.185 18.2671C168.052 18.2748 168.908 18.4677 169.694 18.8327C170.48 19.1978 171.18 19.7265 171.745 20.3837C172.279 21.1001 172.645 21.9276 172.815 22.8048C172.986 23.6819 172.956 24.5862 172.729 25.4503L171.149 36.0618ZM139.662 36.0802C139.635 36.2425 139.551 36.3899 139.425 36.4966C139.299 36.6032 139.14 36.6623 138.976 36.6635H135.444C135.336 36.6665 135.229 36.6442 135.131 36.5985C134.992 36.5298 134.879 36.4184 134.809 36.2807C134.738 36.1429 134.714 35.9861 134.739 35.8335L134.862 35.0835C133.259 36.106 131.397 36.6495 129.496 36.6502C129.392 36.6502 129.212 36.6668 128.977 36.6668C128.121 36.712 127.263 36.5792 126.46 36.2769C125.657 35.9746 124.925 35.5092 124.311 34.9102C123.813 34.1798 123.479 33.3511 123.329 32.4801C123.18 31.6091 123.22 30.7162 123.446 29.8619C124.124 26.6953 126.483 25.5286 130.644 24.8936C132.589 24.6227 134.562 24.6075 136.511 24.8486C136.594 24.182 136.777 22.8303 136.511 22.487C136.151 22.0237 135.304 21.7653 133.677 21.622C131.701 21.5348 129.726 21.8174 127.854 22.4553C127.761 22.4877 127.663 22.5002 127.565 22.4922C127.467 22.4841 127.372 22.4557 127.286 22.4087C127.157 22.3356 127.055 22.2247 126.992 22.091C126.929 21.9574 126.909 21.8075 126.934 21.662L127.324 19.6837C127.344 19.5592 127.398 19.4424 127.478 19.3454C127.559 19.2484 127.664 19.1747 127.783 19.132C130.934 17.9606 134.373 17.8085 137.616 18.697C138.688 18.8556 139.671 19.3841 140.395 20.1909C141.118 20.9978 141.537 22.0322 141.579 23.1153C141.668 24.8475 141.459 26.5821 140.961 28.2436C140.927 28.3969 139.857 35.0368 139.667 36.0852L139.662 36.0802ZM134.291 27.7403C130.291 27.7403 128.754 29.0736 128.339 29.6519C128.096 29.9447 127.933 30.2951 127.865 30.6693C127.797 31.0436 127.827 31.4291 127.951 31.7885C128.087 32.0705 128.297 32.3099 128.559 32.4808C128.821 32.6518 129.125 32.7479 129.437 32.7585C130.602 32.7893 131.758 32.5494 132.814 32.0578C133.87 31.5661 134.798 30.8362 135.524 29.9252L135.894 27.8286C135.322 27.7653 134.787 27.7403 134.291 27.7403ZM123.399 18.1671C123.359 18.3447 123.25 18.4994 123.097 18.5981C122.944 18.6968 122.758 18.7317 122.579 18.6954C114.268 16.9187 108.668 19.3054 107.218 25.2436C107.002 25.9559 106.942 26.7065 107.044 27.4439C107.146 28.1812 107.406 28.8879 107.806 29.5152C108.3 30.1575 108.927 30.6851 109.644 31.062C110.362 31.4389 111.152 31.6561 111.961 31.6985C112.774 31.8431 113.607 31.8218 114.412 31.6359C115.216 31.45 115.974 31.1034 116.641 30.6169L117.368 27.3253H113.811C113.695 27.3297 113.58 27.3038 113.478 27.2503C113.341 27.176 113.232 27.0596 113.167 26.9184C113.103 26.7773 113.085 26.6189 113.118 26.4669L113.716 23.6703C113.748 23.5137 113.833 23.3727 113.956 23.2711C114.08 23.1695 114.234 23.1133 114.394 23.112H122.293C122.404 23.1091 122.515 23.1338 122.614 23.1837C122.752 23.2561 122.863 23.3711 122.931 23.5116C122.998 23.6521 123.019 23.8106 122.989 23.9636L121.064 33.8619C120.981 34.2969 120.701 35.2702 120.154 35.5385C117.518 36.4576 114.731 36.8699 111.941 36.7535C111.73 36.7535 111.517 36.7507 111.301 36.7452C102.768 36.0902 101.738 29.6886 101.653 27.8769C101.608 25.3488 102.256 22.8566 103.526 20.6701C104.796 18.4836 106.64 16.6861 108.858 15.4721C111.742 13.8842 115.016 13.1447 118.303 13.3388H118.393C120.202 13.2729 122.008 13.532 123.726 14.1038C123.882 14.1714 124.009 14.2923 124.085 14.4449C124.16 14.5975 124.179 14.7719 124.138 14.9371L123.399 18.1671ZM99.7562 27.8219C99.7001 28.0027 99.5877 28.1609 99.4354 28.2733C99.2831 28.3857 99.0988 28.4466 98.9095 28.4469H86.3197C86.2599 28.8624 86.2867 29.2858 86.3982 29.6905C86.5098 30.0951 86.7038 30.4724 86.968 30.7986C87.5823 31.3426 88.3034 31.7524 89.0852 32.0018C89.8669 32.2512 90.6921 32.3346 91.508 32.2469C93.8181 32.018 96.0346 31.216 97.9562 29.9136C98.072 29.8349 98.2089 29.7932 98.3489 29.7939C98.4889 29.7945 98.6254 29.8376 98.7405 29.9173C98.8556 29.997 98.9438 30.1097 98.9936 30.2405C99.0434 30.3713 99.0525 30.5142 99.0195 30.6502L98.4129 34.1785C98.387 34.298 98.3359 34.4106 98.2629 34.5086C98.1898 34.6066 98.0966 34.6879 97.9895 34.7468C95.6194 36.0065 92.9771 36.6674 90.293 36.6718C88.907 36.7754 87.5154 36.5672 86.2205 36.0625C84.9255 35.5578 83.7601 34.7694 82.8097 33.7552C82.0927 32.7686 81.5869 31.6447 81.324 30.4537C81.061 29.2628 81.0465 28.0304 81.2814 26.8336C81.7637 24.1887 83.1963 21.8113 85.3094 20.1491C87.4226 18.4869 90.0705 17.6545 92.7546 17.8087C93.8669 17.7194 94.9849 17.8839 96.0243 18.2898C97.0637 18.6958 97.9972 19.3325 98.7545 20.152C99.409 21.0458 99.8656 22.0687 100.094 23.1526C100.322 24.2366 100.318 25.3567 100.08 26.4386C100.002 26.9062 99.8937 27.3683 99.7562 27.8219ZM94.5796 22.2353C94.2457 21.8747 93.8339 21.595 93.3755 21.4177C92.9171 21.2403 92.4243 21.17 91.9346 21.212C90.8126 21.2448 89.7283 21.6246 88.8311 22.2992C87.9339 22.9737 87.2678 23.9098 86.9247 24.9786H95.1796C95.2647 24.5044 95.2556 24.018 95.1526 23.5473C95.0497 23.0766 94.8549 22.6307 94.5796 22.2353ZM79.1998 27.8803C78.9015 29.4686 78.2981 32.9869 76.3282 34.6152C75.6776 35.1761 74.9417 35.6295 74.1482 35.9585C72.5294 36.6487 70.7631 36.9209 69.0116 36.7502C68.0062 36.6705 67.0331 36.3579 66.1694 35.8373C65.3056 35.3166 64.5749 34.602 64.035 33.7502C63.1298 34.6502 62.0554 35.362 60.8737 35.8446C59.692 36.3272 58.4265 36.5709 57.1501 36.5618C56.8723 36.5618 56.5901 36.5502 56.3034 36.5268C55.4141 36.4945 54.5429 36.2669 53.7514 35.8602C52.9599 35.4535 52.2676 34.8777 51.7235 34.1735C51.0696 33.3545 50.5924 32.4089 50.3219 31.3964C50.0514 30.3838 49.9935 29.3263 50.1518 28.2903L52.8018 13.1704C52.8334 12.9753 52.9334 12.7977 53.084 12.6694C53.2345 12.5412 53.4257 12.4707 53.6234 12.4705H53.6418L57.5167 13.6371C57.6385 13.6406 57.758 13.6708 57.8669 13.7255C57.9757 13.7802 58.0712 13.8581 58.1467 13.9538C58.2221 14.0505 58.276 14.1623 58.3048 14.2816C58.3335 14.4009 58.3364 14.5249 58.3134 14.6454L55.4751 27.8453C55.3146 28.3868 55.2694 28.9559 55.3423 29.5159C55.4152 30.076 55.6047 30.6145 55.8984 31.0969C56.1636 31.3752 56.4883 31.5901 56.8482 31.7255C57.208 31.8608 57.5938 31.9131 57.9767 31.8785C58.7374 31.8782 59.4822 31.6602 60.123 31.2503C60.7639 30.8404 61.274 30.2557 61.5933 29.5652C61.8092 29.134 61.9565 28.6718 62.03 28.1953L62.08 27.8769L64.6583 13.1954C64.6912 12.9896 64.7973 12.8025 64.9572 12.6687C65.1171 12.5349 65.3199 12.4633 65.5283 12.4671L69.1216 13.6054C69.2478 13.608 69.3719 13.6382 69.4851 13.6941C69.5983 13.75 69.6978 13.8301 69.7766 13.9288C69.8565 14.0286 69.9142 14.1443 69.9458 14.2681C69.9774 14.392 69.9822 14.5212 69.9599 14.6471L67.1266 27.8453C66.9704 28.3528 66.9228 28.8876 66.9868 29.4148C67.0509 29.942 67.2251 30.4498 67.4983 30.9052C67.7733 31.1845 68.1079 31.3979 68.477 31.5295C68.8461 31.6611 69.2403 31.7075 69.6299 31.6652C70.3722 31.7096 71.1112 31.5343 71.7544 31.1611C72.3977 30.7879 72.9166 30.2334 73.2465 29.5669C73.4621 29.1368 73.6095 28.6757 73.6832 28.2003L75.9132 16.4987L76.5515 13.5504C76.5847 13.3692 76.6804 13.2053 76.8221 13.0875C76.9637 12.9696 77.1422 12.9052 77.3265 12.9055L81.3948 14.3504C81.5083 14.3521 81.62 14.3789 81.722 14.4287C81.8239 14.4785 81.9137 14.5503 81.9848 14.6388C82.0573 14.7283 82.1097 14.8324 82.1385 14.944C82.1672 15.0555 82.1716 15.172 82.1514 15.2854L79.1998 27.8803Z" fill="white"/>
<defs>
<linearGradient id="paint0_linear_2_54" x1="1.16115" y1="10.7815" x2="44.0294" y2="33.8157" gradientUnits="userSpaceOnUse">
<stop stop-color="#FFE76D"/>
<stop offset="0.347" stop-color="#FFC757"/>
<stop offset="1" stop-color="#FF5454"/>
</linearGradient>
</defs>
</svg>
