<svg width="1680" height="162" viewBox="0 0 1680 162" fill="none" xmlns="http://www.w3.org/2000/svg">
<path fill-rule="evenodd" clip-rule="evenodd" d="M1679.37 118.21V161.711H1534.64V0.389782H1679.37V20.4589L1657.54 43.8939H1578.06V60.2073H1659.47V103.71H1578.06V118.21H1679.37ZM1527.4 130.656L1527.41 161.711L1496.41 161.707L1451.19 116.398H1426.1V161.711H1382.68V122.439L1406.2 83.7402L1390.4 56.0655L1382.68 41.7877V0.389782H1511.11L1527.41 16.7231V72.6834L1499.49 102.686L1527.4 130.656ZM1483.99 43.8939H1426.1V72.8955L1468.51 72.6834L1483.99 56.6872V43.8939ZM1274.14 53.8415V108.261L1284.07 118.21H1317.56L1290.42 161.711H1244.26L1230.72 148.144V14.8812L1245.46 0.389782H1294.04L1319.37 43.8939H1284.07L1274.14 53.8415ZM1180.07 64.1334L1149.36 118.267H1122.03L1089.61 62.4567V161.769H1046.2V0.447785L1103.54 0.435097L1134.96 55.2933L1166.61 0.378906L1223.49 0.447785V161.769H1180.07V64.1334ZM825.491 161.711V0.389782H970.217V25.1903L951.182 43.8939H868.909V60.2073H950.317V103.71H868.909V118.21H970.217V161.711H825.491ZM774.838 64.1334L744.134 118.267H716.803L684.385 62.4567V161.769H640.967V0.447785L698.305 0.435097L729.725 55.2933L761.376 0.378906L818.255 0.447785V161.769H774.838V64.1334ZM633.731 161.711H590.313V145.624H506.805L490.815 161.711L432.921 161.664L590.313 0.389782H633.731V161.711ZM590.313 61.6175L550.273 101.897L590.313 101.924V61.6175ZM399.088 43.8939L380.462 63.3141V118.21H404.086L425.795 96.4574H402.171V62.0181H487.197V96.4574L422.07 161.711H337.044V46.7458L383.242 0.389782H523.624V23.3051L503.203 43.8939H399.088ZM185.083 161.711V0.389782H329.808V25.1795L311.078 43.8939H228.501V60.2073H309.908V103.71H228.501V118.21H329.808V161.711H185.083ZM120.509 161.724L89.0887 106.865L57.4374 161.782L7.79485 161.711H0.558594V0.389782H43.9761V98.0253L63.9192 62.9208L74.6777 43.8939H102.011L104.486 48.3837L134.429 99.702V0.389782H177.847V161.711L120.509 161.724Z" fill="#E3E3E3"/>
<path fill-rule="evenodd" clip-rule="evenodd" d="M1398.92 83.7847L1352.18 161.767L1299.51 161.699L1347.98 81.1193L1301.32 0.43676L1351.38 0.425888L1398.92 83.7847Z" fill="#FF9D2B"/>
</svg>
