<svg width="32" height="32" viewBox="0 0 32 32" fill="none" xmlns="http://www.w3.org/2000/svg"><path fill-rule="evenodd" clip-rule="evenodd" d="M11.0181 24.6256C13.1093 25.833 15.568 26.2395 17.9365 25.7695C20.3051 25.2996 22.4223 23.9851 23.8941 22.0707C25.3659 20.1564 26.0922 17.7725 25.9376 15.3627C25.7831 12.9529 24.7584 10.6813 23.0541 8.97056C21.3499 7.25984 19.0822 6.22653 16.673 6.06291C14.2638 5.89928 11.8772 6.61648 9.95724 8.08105C8.03733 9.54562 6.71486 11.6578 6.23593 14.0246C5.757 16.3914 6.15422 18.8516 7.35368 20.9473L5.58315 21.9607C5.24704 21.3729 4.96481 20.7655 4.73535 20.1415C3.9729 18.068 3.79315 15.8108 4.23646 13.62C4.81349 10.7684 6.40682 8.22364 8.71997 6.45909C11.0331 4.69455 13.9085 3.83046 16.8112 4.0276C19.7139 4.22474 22.446 5.46969 24.4994 7.53079C26.5527 9.59189 27.7873 12.3288 27.9735 15.2321C28.1596 18.1355 27.2847 21.0077 25.5114 23.3141C23.7381 25.6206 21.1873 27.2043 18.3336 27.7705C16.1411 28.2056 13.8846 28.0173 11.814 27.247C11.1895 27.0147 10.5819 26.7294 9.99806 26.3923L11.0181 24.6256Z" fill="white"/><rect width="2" height="9" transform="matrix(-1 0 0 1 18 9)" fill="white"/><path d="M12.1729 21.8013L11.1727 19.8012L17.9658 16.0002V18.5002L12.1729 21.8013Z" fill="white"/></svg>
